<!DOCTYPE svg PUBLIC "-//W3C//DTD SVG 20010904//EN" "http://www.w3.org/TR/2001/REC-SVG-20010904/DTD/svg10.dtd">
<svg version="1.0" xmlns="http://www.w3.org/2000/svg" width="596px" height="511px" viewBox="0 0 5960 5110" preserveAspectRatio="xMidYMid meet">
<g id="layer101" fill="#212439" stroke="none">
 <path d="M1485 5095 c-7 -5 -55 -85 -108 -176 l-95 -167 37 -6 c52 -8 3334 -7 3347 2 8 5 -20 62 -85 174 -54 92 -100 170 -103 174 -11 10 -2980 10 -2993 -1z"/>
 <path d="M1167 4543 c-13 -21 -47 -80 -76 -130 l-53 -93 -299 0 -299 0 5 -57 c6 -61 25 -805 25 -948 l0 -85 -42 0 -43 0 -145 -251 c-80 -138 -146 -255 -148 -260 -2 -5 74 -9 187 -9 l191 0 0 -65 0 -65 -234 -2 -235 -3 148 -255 147 -255 87 -3 87 -3 0 -79 0 -80 -35 0 c-19 0 -35 -3 -35 -7 0 -3 16 -35 36 -70 l35 -64 -10 -397 c-6 -218 -14 -416 -17 -439 l-5 -43 273 0 274 0 54 -95 55 -95 1885 0 1886 0 50 88 50 87 222 3 c203 2 222 4 222 20 0 38 -95 190 -289 463 -13 18 -11 19 65 19 l79 1 142 247 c78 136 145 255 149 265 6 16 -18 17 -424 17 l-431 0 -66 78 -66 77 547 5 548 5 148 255 147 255 -684 3 -684 2 47 65 47 65 592 0 c326 0 593 2 593 5 0 2 -55 100 -123 217 -68 117 -134 232 -147 256 l-24 42 -282 0 -283 0 47 80 47 80 183 0 c155 0 183 2 179 14 -3 8 -44 81 -91 161 -47 81 -86 149 -86 152 0 3 40 80 89 172 98 183 175 348 186 399 l7 32 -325 0 -325 0 -74 128 -73 127 -1792 3 -1793 2 -23 -37z m973 -498 c0 -3 -7 -32 -17 -65 l-16 -60 -504 0 -503 0 0 65 0 65 520 0 c286 0 520 -2 520 -5z m950 -22 c0 -16 3 -45 6 -65 l7 -38 -153 0 c-117 0 -151 3 -148 13 3 6 13 36 23 65 l19 52 123 0 123 0 0 -27z m1568 -38 l-32 -65 -438 0 -438 0 0 65 0 65 470 0 470 0 -32 -65z m-2749 -607 c0 -7 -15 -42 -33 -78 l-32 -65 -377 -3 -377 -2 0 80 0 80 410 0 c322 0 410 -3 409 -12z m1201 -68 l0 -80 -290 0 -289 0 20 48 c11 26 27 62 34 80 l14 32 255 0 256 0 0 -80z m1220 73 c0 -3 -19 -39 -42 -79 l-43 -74 -252 0 -253 0 0 80 0 80 295 0 c162 0 295 -3 295 -7z m-1220 -738 l0 -65 -492 0 c-465 0 -495 2 -535 20 -24 10 -43 26 -43 34 0 8 26 28 58 44 l57 30 478 1 477 1 0 -65z m-1085 -595 c3 -5 9 -41 12 -80 l6 -70 -482 0 -481 0 0 80 0 80 469 0 c302 0 472 -4 476 -10z m1085 -70 l0 -80 -237 2 -236 3 -18 75 c-10 41 -18 76 -19 78 0 1 115 2 255 2 l255 0 0 -80z m892 42 c14 -20 41 -56 58 -79 l32 -43 -181 0 -181 0 0 80 0 80 123 0 122 0 27 -38z m-902 -732 l0 -80 -289 0 -289 0 41 80 41 80 248 0 248 0 0 -80z m1384 3 l45 -78 -386 -3 c-212 -1 -387 -1 -389 0 -1 2 -5 38 -9 81 l-7 77 350 0 350 0 46 -77z"/>
 <path d="M1203 522 c-8 -5 34 -86 134 -260 l146 -252 841 -1 c1555 0 2150 1 2155 7 3 3 69 116 148 252 120 209 139 248 125 254 -23 9 -3534 10 -3549 0z"/>
 </g>
<g id="layer102" fill="#ff8000" stroke="none">
 <path d="M445 4263 c6 -61 25 -805 25 -948 l0 -85 310 0 309 0 1 308 c0 169 3 353 6 410 l7 102 -107 0 c-58 0 -106 3 -106 6 0 4 32 62 70 129 39 67 70 125 70 129 0 3 -133 6 -295 6 l-295 0 5 -57z"/>
 <path d="M3094 4128 c2 -106 5 -196 5 -200 1 -5 147 -8 326 -8 l325 0 0 200 0 200 -330 0 -330 0 4 -192z"/>
 <path d="M4790 4302 c0 -35 -43 -145 -101 -258 -33 -62 -59 -116 -59 -119 0 -2 122 -6 272 -7 l272 -3 56 -97 c30 -53 58 -94 61 -90 4 4 45 79 92 167 94 178 171 343 182 393 l7 32 -391 0 c-370 0 -391 -1 -391 -18z"/>
 <path d="M2125 3983 c-58 -230 -187 -573 -271 -726 l-15 -27 347 2 347 3 33 78 c18 42 31 77 29 77 -2 0 12 39 32 88 19 48 64 164 98 257 35 94 75 199 89 234 14 36 26 68 26 73 0 4 -157 8 -349 8 l-349 0 -17 -67z"/>
 <path d="M3115 2985 l0 -405 738 0 737 0 41 58 c58 83 184 278 291 452 51 83 112 181 135 218 23 37 42 70 42 75 1 4 -171 7 -381 7 l-383 0 -24 -43 c-13 -23 -38 -69 -55 -102 -71 -133 -203 -321 -290 -414 -74 -79 -129 -111 -189 -111 l-50 0 5 335 6 335 -312 0 -311 0 0 -405z"/>
 <path d="M475 2305 l0 -405 302 0 303 0 2 288 3 287 150 3 c404 8 646 -90 750 -302 36 -73 41 -91 52 -208 l6 -68 297 0 298 0 -15 68 c-22 96 -102 257 -173 346 -65 82 -173 173 -267 227 -32 18 -60 35 -63 38 -3 3 -22 14 -42 23 -50 23 -48 44 5 68 23 10 49 24 57 29 10 8 -238 11 -825 11 l-840 0 0 -405z"/>
 <path d="M3112 1778 c-1 -156 -4 -347 -8 -425 l-7 -143 328 0 328 0 -7 58 c-3 31 -9 222 -13 425 l-6 367 -307 0 -307 0 -1 -282z"/>
 <path d="M3981 2053 c0 -5 27 -42 60 -83 33 -41 120 -165 193 -275 131 -198 159 -243 251 -402 l47 -83 314 0 c173 0 314 -2 314 -4 0 -3 -39 -71 -86 -153 -47 -81 -90 -156 -95 -165 -9 -17 4 -18 211 -18 256 0 243 -8 179 110 -42 77 -213 330 -252 372 -12 13 -62 78 -111 144 -50 65 -138 181 -198 257 -59 75 -108 140 -108 143 0 3 -30 41 -67 85 l-68 79 -292 0 c-161 0 -293 -3 -292 -7z"/>
 <path d="M466 1553 c-4 -109 -10 -304 -15 -433 -4 -129 -7 -236 -7 -237 1 0 305 -3 676 -5 523 -2 693 0 755 10 141 23 267 61 373 112 85 42 117 65 193 138 68 66 99 104 125 157 l35 70 -953 3 -953 2 -108 190 c-60 105 -110 190 -112 190 -1 0 -6 -89 -9 -197z"/>
 </g>

</svg>