<!DOCTYPE svg PUBLIC "-//W3C//DTD SVG 20010904//EN" "http://www.w3.org/TR/2001/REC-SVG-20010904/DTD/svg10.dtd">
<svg version="1.0" xmlns="http://www.w3.org/2000/svg" width="596px" height="511px" viewBox="0 0 5960 5110" preserveAspectRatio="xMidYMid meet">
<g id="layer101" fill="#212439" stroke="none">
 <path d="M1485 5095 c-7 -5 -55 -85 -108 -176 l-95 -167 37 -6 c52 -8 3334 -7 3347 2 8 5 -20 62 -85 174 -54 92 -100 170 -103 174 -11 10 -2980 10 -2993 -1z"/>
 <path d="M1167 4543 c-13 -21 -47 -80 -76 -130 l-53 -93 -299 0 -299 0 5 -57 c6 -61 25 -805 25 -948 l0 -85 -42 0 -43 0 -145 -251 c-80 -138 -146 -255 -148 -260 -2 -5 74 -9 187 -9 l191 0 0 -65 0 -65 -234 -2 -235 -3 148 -255 147 -255 87 -3 87 -3 0 -79 0 -80 -35 0 c-19 0 -35 -3 -35 -7 0 -3 16 -35 36 -70 l35 -64 -10 -397 c-6 -218 -14 -416 -17 -439 l-5 -43 273 0 274 0 54 -95 55 -95 1885 0 1886 0 50 88 50 87 222 3 c203 2 222 4 222 20 0 38 -95 190 -289 463 -13 18 -11 19 65 19 l79 1 142 247 c78 136 145 255 149 265 6 16 -18 17 -424 17 l-431 0 -66 78 -66 77 547 5 548 5 148 255 147 255 -684 3 -684 2 47 65 47 65 592 0 c326 0 593 2 593 5 0 2 -55 100 -123 217 -68 117 -134 232 -147 256 l-24 42 -282 0 -283 0 47 80 47 80 183 0 c155 0 183 2 179 14 -3 8 -44 81 -91 161 -47 81 -86 149 -86 152 0 3 40 80 89 172 98 183 175 348 186 399 l7 32 -325 0 -325 0 -74 128 -73 127 -1792 3 -1793 2 -23 -37z m973 -498 c0 -3 -7 -32 -17 -65 l-16 -60 -504 0 -503 0 0 65 0 65 520 0 c286 0 520 -2 520 -5z m950 -22 c0 -16 3 -45 6 -65 l7 -38 -153 0 c-117 0 -151 3 -148 13 3 6 13 36 23 65 l19 52 123 0 123 0 0 -27z m1568 -38 l-32 -65 -438 0 -438 0 0 65 0 65 470 0 470 0 -32 -65z m-2749 -607 c0 -7 -15 -42 -33 -78 l-32 -65 -377 -3 -377 -2 0 80 0 80 410 0 c322 0 410 -3 409 -12z m1201 -68 l0 -80 -290 0 -289 0 20 48 c11 26 27 62 34 80 l14 32 255 0 256 0 0 -80z m1220 73 c0 -3 -19 -39 -42 -79 l-43 -74 -252 0 -253 0 0 80 0 80 295 0 c162 0 295 -3 295 -7z m-1220 -738 l0 -65 -492 0 c-465 0 -495 2 -535 20 -24 10 -43 26 -43 34 0 8 26 28 58 44 l57 30 478 1 477 1 0 -65z m-1085 -595 c3 -5 9 -41 12 -80 l6 -70 -482 0 -481 0 0 80 0 80 469 0 c302 0 472 -4 476 -10z m1085 -70 l0 -80 -237 2 -236 3 -18 75 c-10 41 -18 76 -19 78 0 1 115 2 255 2 l255 0 0 -80z m892 42 c14 -20 41 -56 58 -79 l32 -43 -181 0 -181 0 0 80 0 80 123 0 122 0 27 -38z m-902 -732 l0 -80 -289 0 -289 0 41 80 41 80 248 0 248 0 0 -80z m1384 3 l45 -78 -386 -3 c-212 -1 -387 -1 -389 0 -1 2 -5 38 -9 81 l-7 77 350 0 350 0 46 -77z"/>
 <path d="M1203 522 c-8 -5 34 -86 134 -260 l146 -252 841 -1 c1555 0 2150 1 2155 7 3 3 69 116 148 252 120 209 139 248 125 254 -23 9 -3534 10 -3549 0z"/>
 </g>
<g id="layer102" fill="#ff8000" stroke="none">
 <path d="M1485 5095 c-7 -5 -55 -85 -108 -176 l-95 -167 37 -6 c52 -8 3334 -7 3347 2 8 5 -20 62 -85 174 -54 92 -100 170 -103 174 -11 10 -2980 10 -2993 -1z"/>
 <path d="M1183 4568 c-15 -19 -242 -418 -277 -485 l-17 -33 1106 0 1106 0 -7 135 -7 135 332 0 331 0 0 -135 0 -135 474 0 473 0 26 58 c40 88 65 155 69 182 3 23 8 25 65 30 l62 5 -72 125 -72 125 -1791 3 c-1426 2 -1794 -1 -1801 -10z"/>
 <path d="M1090 3738 c0 -101 -3 -220 -7 -265 l-6 -83 424 0 424 0 38 98 c31 81 147 420 147 429 0 2 -229 3 -510 3 l-510 0 0 -182z"/>
 <path d="M2725 3738 c-37 -101 -82 -220 -100 -265 l-33 -83 1440 0 c1244 0 1439 2 1435 14 -3 8 -45 81 -93 163 -48 81 -114 194 -147 251 l-60 102 -1187 0 -1187 0 -68 -182z"/>
 <path d="M240 2979 c-80 -138 -146 -255 -148 -260 -2 -5 580 -9 1512 -9 l1516 0 0 260 0 260 -1367 0 -1368 0 -145 -251z"/>
 <path d="M3730 2975 l0 -255 45 0 c26 0 60 7 77 16 85 44 243 236 377 457 l23 37 -261 0 -261 0 0 -255z"/>
 <path d="M4927 3101 c-43 -70 -115 -186 -162 -257 l-84 -129 591 -3 c325 -1 593 0 595 2 2 2 -52 100 -120 217 -68 118 -134 233 -147 257 l-24 42 -286 0 -286 0 -77 -129z"/>
 <path d="M14 2553 c9 -16 75 -131 149 -258 l133 -230 92 -3 92 -3 0 261 0 260 -240 0 -241 0 15 -27z"/>
 <path d="M2209 2523 c160 -99 295 -251 356 -401 l23 -57 1538 0 1538 0 116 200 c64 110 131 226 149 257 l32 58 -1922 0 -1923 0 93 -57z"/>
 <path d="M1080 2270 l0 -210 476 0 475 0 -6 23 c-20 68 -70 154 -120 206 -129 135 -321 191 -657 191 l-168 0 0 -210z"/>
 <path d="M400 1894 c0 -8 46 -89 189 -334 l108 -185 1207 -3 1206 -2 0 182 c0 101 3 220 7 266 l6 82 -1362 0 c-748 0 -1361 -3 -1361 -6z"/>
 <path d="M3730 1718 c0 -101 3 -220 7 -265 l6 -83 348 0 c192 0 349 2 349 5 0 7 -146 235 -251 391 l-89 134 -185 0 -185 0 0 -182z"/>
 <path d="M4787 1777 c54 -67 145 -186 203 -264 l105 -142 85 0 85 0 142 247 c78 136 145 255 149 265 6 16 -19 17 -430 17 l-436 0 97 -123z"/>
 <path d="M2429 1130 c-120 -121 -280 -192 -534 -237 -86 -16 -155 -18 -503 -16 -222 1 -402 -2 -400 -6 2 -4 26 -47 53 -94 l50 -87 1886 0 1885 0 41 73 c23 39 53 95 68 122 15 28 62 109 103 180 41 72 77 133 79 138 2 4 -593 6 -1324 5 l-1328 -2 -76 -76z"/>
 <path d="M1203 522 c-8 -5 34 -86 134 -260 l146 -252 841 -1 c1555 0 2150 1 2155 7 3 3 69 116 148 252 120 209 139 248 125 254 -23 9 -3534 10 -3549 0z"/>
 </g>

</svg>