<?xml version="1.0" encoding="UTF-8" ?>
<!DOCTYPE svg PUBLIC "-//W3C//DTD SVG 1.1//EN" "http://www.w3.org/Graphics/SVG/1.1/DTD/svg11.dtd">
<svg width="472pt" height="412pt" viewBox="0 0 472 412" version="1.1" xmlns="http://www.w3.org/2000/svg">
<g id="#ff8000ff">
<path fill="#ff8000" opacity="1.00" d=" M 0.00 0.00 L 0.24 0.00 C 0.18 0.06 0.06 0.18 0.00 0.24 L 0.00 0.00 Z" />
<path fill="#ff8000" opacity="1.00" d=" M 120.16 0.60 C 158.40 0.82 196.67 0.61 234.91 0.70 C 232.76 5.19 230.40 9.57 227.79 13.81 C 216.79 32.62 205.84 51.45 194.84 70.26 C 183.25 70.52 171.69 71.76 160.08 71.27 C 149.16 52.64 138.77 33.72 128.00 15.00 C 125.25 10.28 122.47 5.56 120.16 0.60 Z" />
<path fill="#ff8000" opacity="1.00" d=" M 238.13 0.75 C 276.39 0.62 314.65 0.69 352.91 0.71 C 351.45 3.63 350.06 6.58 348.40 9.38 C 339.61 24.29 330.96 39.27 322.21 54.20 C 319.01 59.80 315.47 65.22 312.78 71.10 C 301.18 71.30 289.58 71.22 277.99 71.16 C 271.72 60.36 265.55 49.50 259.40 38.63 C 252.51 25.89 244.80 13.60 238.13 0.75 Z" />
<path fill="#ff8000" opacity="1.00" d=" M 60.97 103.26 C 84.79 102.74 108.63 103.60 132.44 102.84 C 132.93 106.21 133.43 109.59 133.32 113.00 C 132.98 134.90 133.57 156.81 133.20 178.71 C 127.35 186.39 123.67 195.44 118.01 203.25 C 115.06 199.30 112.77 194.93 110.37 190.64 C 96.49 166.48 82.77 142.22 69.01 117.99 C 66.29 113.11 63.12 108.45 60.97 103.26 Z" />
<path fill="#ff8000" opacity="1.00" d=" M 320.82 104.05 C 340.04 104.79 359.30 103.92 378.52 104.51 C 374.00 112.51 368.81 120.10 363.97 127.91 C 354.84 141.85 345.61 155.79 334.98 168.65 C 330.42 164.30 328.18 158.32 324.85 153.11 C 322.75 149.77 320.68 146.14 320.84 142.05 C 320.86 135.92 321.06 129.78 320.52 123.66 C 320.88 117.13 320.82 110.58 320.82 104.05 Z" />
<path fill="#ff8000" opacity="1.00" d=" M 182.74 110.02 C 192.14 106.69 202.24 108.06 212.00 107.71 C 218.97 107.35 225.73 109.49 232.29 111.58 C 239.39 114.53 246.10 119.44 249.59 126.47 C 253.07 133.41 254.57 141.26 254.32 149.00 C 254.58 159.96 251.66 171.73 243.58 179.58 C 239.16 183.98 233.85 188.09 227.61 189.30 C 218.30 172.97 208.89 156.71 199.68 140.33 C 194.19 130.14 187.95 120.36 182.74 110.02 Z" />
<path fill="#ff8000" opacity="1.00" d=" M 0.00 206.04 C 39.25 206.24 78.50 206.07 117.75 206.12 C 98.04 239.87 78.46 273.69 58.61 307.36 C 46.37 285.74 33.60 264.40 21.16 242.89 C 14.02 231.12 7.70 218.83 0.00 207.42 L 0.00 206.04 Z" />
<path fill="#ff8000" opacity="1.00" d=" M 119.97 206.27 C 124.41 206.04 128.85 206.04 133.30 206.09 C 133.39 213.79 133.39 221.48 133.23 229.18 C 128.25 221.90 123.77 214.22 119.97 206.27 Z" />
<path fill="#ff8000" opacity="1.00" d=" M 252.62 206.04 C 259.50 206.23 266.39 206.14 273.28 205.95 C 273.36 211.07 273.42 216.20 272.85 221.29 C 270.06 218.70 267.15 216.25 264.20 213.86 C 260.90 211.14 256.82 209.70 253.09 207.74 C 252.97 207.31 252.73 206.47 252.62 206.04 Z" />
<path fill="#ff8000" opacity="1.00" d=" M 389.60 207.42 C 407.40 207.20 425.20 207.38 443.00 207.32 C 452.40 207.42 461.81 207.05 471.21 207.60 C 458.41 230.38 445.32 252.99 432.51 275.75 C 427.92 270.25 425.02 263.65 421.32 257.57 C 411.42 240.44 401.11 223.52 389.60 207.42 Z" />
<path fill="#ff8000" opacity="1.00" d=" M 321.02 212.87 C 330.27 211.28 337.38 218.98 342.51 225.58 C 337.62 233.70 332.90 241.91 328.11 250.08 C 326.00 253.89 323.96 257.77 321.17 261.13 C 320.40 245.06 321.19 228.96 321.02 212.87 Z" />
<path fill="#ff8000" opacity="1.00" d=" M 179.87 229.90 C 187.25 229.58 194.63 229.81 202.01 229.72 C 208.24 229.65 214.44 230.94 220.17 233.37 C 218.58 235.74 217.03 238.14 215.60 240.62 C 205.62 257.93 195.42 275.12 185.47 292.46 C 184.06 294.82 182.42 297.03 180.72 299.20 C 180.96 289.78 179.47 280.42 179.73 271.00 C 179.96 257.30 179.42 243.59 179.87 229.90 Z" />
<path fill="#ff8000" opacity="1.00" d=" M 59.21 308.94 C 83.51 309.35 107.82 309.05 132.12 309.09 C 132.28 317.97 132.64 326.88 131.30 335.69 C 141.22 335.93 151.14 335.66 161.06 335.80 C 146.81 360.75 132.18 385.49 117.69 410.30 C 100.84 381.21 83.80 352.22 66.90 323.15 C 64.24 318.47 61.10 314.01 59.21 308.94 Z" />
<path fill="#ff8000" opacity="1.00" d=" M 180.75 309.09 C 203.84 309.20 226.92 309.05 250.01 309.16 C 253.50 309.16 256.98 308.99 260.46 308.78 C 263.45 317.62 265.95 326.61 268.55 335.57 C 272.04 335.81 275.55 335.90 279.05 335.83 C 266.25 358.35 252.92 380.56 240.05 403.03 C 238.82 405.17 237.43 407.23 236.00 409.25 C 232.46 404.51 229.89 399.17 226.91 394.08 C 220.59 383.06 214.30 372.02 208.00 361.00 C 198.92 345.27 190.36 329.24 180.91 313.73 C 180.84 312.18 180.79 310.63 180.75 309.09 Z" />
<path fill="#ff8000" opacity="1.00" d=" M 321.73 310.08 C 334.81 310.60 347.91 310.19 361.00 310.32 C 371.39 310.18 381.80 310.67 392.18 309.96 C 395.57 316.89 399.98 323.66 400.86 331.49 C 394.86 340.19 390.23 349.75 384.82 358.81 C 374.90 376.59 364.44 394.06 354.82 412.00 L 354.24 412.00 C 352.24 405.76 348.38 400.41 345.26 394.72 C 334.18 375.07 322.64 355.67 311.93 335.81 C 315.22 335.87 318.50 335.91 321.79 335.94 L 321.74 335.10 C 322.05 326.76 321.53 318.42 321.73 310.08 Z" />
</g>
<g id="#ffa142ff">
<path fill="#ffa142" opacity="1.00" d=" M 118.05 0.00 L 119.43 0.00 L 120.16 0.60 C 122.47 5.56 125.25 10.28 128.00 15.00 C 138.77 33.72 149.16 52.64 160.08 71.27 C 150.45 71.43 140.82 71.17 131.19 71.35 C 131.39 77.25 132.37 83.10 132.29 89.01 C 132.30 93.62 131.99 98.24 132.44 102.84 C 108.63 103.60 84.79 102.74 60.97 103.26 C 63.12 108.45 66.29 113.11 69.01 117.99 C 82.77 142.22 96.49 166.48 110.37 190.64 C 112.77 194.93 115.06 199.30 118.01 203.25 C 123.67 195.44 127.35 186.39 133.20 178.71 C 133.45 187.84 133.43 196.96 133.30 206.09 C 128.85 206.04 124.41 206.04 119.97 206.27 C 123.77 214.22 128.25 221.90 133.23 229.18 C 133.43 248.78 133.06 268.39 133.28 288.00 C 133.49 295.06 132.10 302.04 132.12 309.09 C 107.82 309.05 83.51 309.35 59.21 308.94 C 59.06 308.54 58.76 307.75 58.61 307.36 C 78.46 273.69 98.04 239.87 117.75 206.12 C 78.50 206.07 39.25 206.24 0.00 206.04 L 0.00 203.56 C 15.22 178.16 29.86 152.42 44.90 126.92 C 50.26 117.24 56.60 108.07 60.86 97.82 C 71.49 79.19 82.48 60.77 93.20 42.19 C 101.57 28.18 109.43 13.86 118.05 0.00 Z" />
<path fill="#ffa142" opacity="1.00" d=" M 236.43 0.00 L 237.69 0.00 L 238.13 0.75 C 244.80 13.60 252.51 25.89 259.40 38.63 C 265.55 49.50 271.72 60.36 277.99 71.16 C 275.80 71.18 273.62 71.26 271.45 71.34 C 271.21 74.33 271.00 77.33 270.81 80.32 C 261.56 76.60 252.01 73.43 242.10 72.06 C 226.51 69.05 210.59 70.63 194.84 70.26 C 205.84 51.45 216.79 32.62 227.79 13.81 C 230.40 9.57 232.76 5.19 234.91 0.70 C 235.29 0.53 236.05 0.18 236.43 0.00 Z" />
<path fill="#ffa142" opacity="1.00" d=" M 354.39 0.00 L 355.60 0.00 C 367.42 21.23 379.57 42.29 391.50 63.47 C 392.94 65.99 394.29 68.63 396.44 70.64 C 394.95 74.91 393.44 79.20 391.20 83.15 C 387.14 90.37 383.25 97.69 378.52 104.51 C 359.30 103.92 340.04 104.79 320.82 104.05 C 319.85 93.11 322.38 82.28 321.67 71.36 C 318.71 71.20 315.74 71.08 312.78 71.10 C 315.47 65.22 319.01 59.80 322.21 54.20 C 330.96 39.27 339.61 24.29 348.40 9.38 C 350.06 6.58 351.45 3.63 352.91 0.71 C 353.28 0.53 354.02 0.18 354.39 0.00 Z" />
<path fill="#ffa142" opacity="1.00" d=" M 178.97 109.63 C 180.22 109.77 181.48 109.90 182.74 110.02 C 187.95 120.36 194.19 130.14 199.68 140.33 C 208.89 156.71 218.30 172.97 227.61 189.30 C 221.48 192.19 214.65 193.13 208.00 194.12 C 199.35 194.37 190.66 194.23 182.00 194.20 C 180.09 194.52 178.39 192.97 178.78 191.02 C 178.64 170.01 179.02 148.99 178.54 127.99 C 178.47 121.93 176.08 115.31 178.97 109.63 Z" />
<path fill="#ffa142" opacity="1.00" d=" M 403.82 137.85 C 409.85 130.12 415.54 122.11 421.98 114.71 C 423.23 119.40 426.13 123.37 428.46 127.55 C 442.90 152.94 457.12 178.46 472.00 203.58 L 472.00 207.59 L 471.21 207.60 C 461.81 207.05 452.40 207.42 443.00 207.32 C 425.20 207.38 407.40 207.20 389.60 207.42 C 383.50 199.95 378.01 191.78 370.27 185.85 C 368.39 184.25 365.36 182.13 366.99 179.30 C 370.07 175.31 374.46 172.55 377.62 168.60 C 387.04 158.95 395.41 148.37 403.82 137.85 Z" />
<path fill="#ffa142" opacity="1.00" d=" M 319.66 134.00 C 319.54 130.53 319.99 127.08 320.52 123.66 C 321.06 129.78 320.86 135.92 320.84 142.05 C 320.68 146.14 322.75 149.77 324.85 153.11 C 328.18 158.32 330.42 164.30 334.98 168.65 C 332.65 171.43 330.34 174.36 327.22 176.27 C 325.02 177.63 322.34 177.19 319.89 177.30 C 319.45 162.88 319.97 148.44 319.66 134.00 Z" />
<path fill="#ffa142" opacity="1.00" d=" M 257.21 202.06 C 262.76 199.50 267.95 196.26 273.09 192.96 C 273.33 197.29 273.29 201.62 273.28 205.95 C 266.39 206.14 259.50 206.23 252.62 206.04 C 253.15 203.83 255.41 203.01 257.21 202.06 Z" />
<path fill="#ffa142" opacity="1.00" d=" M 320.01 213.04 L 321.02 212.87 C 321.19 228.96 320.40 245.06 321.17 261.13 C 323.96 257.77 326.00 253.89 328.11 250.08 C 332.90 241.91 337.62 233.70 342.51 225.58 C 352.50 237.36 360.05 250.95 367.94 264.16 C 376.33 279.25 384.93 294.27 392.18 309.96 C 381.80 310.67 371.39 310.18 361.00 310.32 C 347.91 310.19 334.81 310.60 321.73 310.08 C 322.05 299.36 320.22 288.72 320.74 278.00 C 321.23 268.30 319.26 258.70 319.72 249.00 C 319.99 237.02 319.31 225.01 320.01 213.04 Z" />
<path fill="#ffa142" opacity="1.00" d=" M 215.60 240.62 C 217.03 238.14 218.58 235.74 220.17 233.37 C 228.40 236.70 235.13 243.17 238.93 251.19 C 248.19 269.52 254.30 289.24 260.46 308.78 C 256.98 308.99 253.50 309.16 250.01 309.16 C 226.92 309.05 203.84 309.20 180.75 309.09 C 180.66 305.79 180.68 302.49 180.72 299.20 C 182.42 297.03 184.06 294.82 185.47 292.46 C 195.42 275.12 205.62 257.93 215.60 240.62 Z" />
<path fill="#ffa142" opacity="1.00" d=" M 180.91 313.73 C 190.36 329.24 198.92 345.27 208.00 361.00 C 214.30 372.02 220.59 383.06 226.91 394.08 C 229.89 399.17 232.46 404.51 236.00 409.25 C 237.43 407.23 238.82 405.17 240.05 403.03 C 252.92 380.56 266.25 358.35 279.05 335.83 C 290.01 335.72 300.97 335.74 311.93 335.81 C 322.64 355.67 334.18 375.07 345.26 394.72 C 348.38 400.41 352.24 405.76 354.24 412.00 L 118.20 412.00 C 118.08 411.58 117.82 410.73 117.69 410.30 C 132.18 385.49 146.81 360.75 161.06 335.80 C 167.61 335.69 174.16 335.94 180.71 335.70 C 180.91 328.38 180.68 321.05 180.91 313.73 Z" />
</g>
<g id="#a8590fbd">
<path fill="#a8590f" opacity="0.74" d=" M 119.43 0.00 L 236.43 0.00 C 236.05 0.18 235.29 0.53 234.91 0.70 C 196.67 0.61 158.40 0.82 120.16 0.60 L 119.43 0.00 Z" />
<path fill="#a8590f" opacity="0.74" d=" M 237.69 0.00 L 354.39 0.00 C 354.02 0.18 353.28 0.53 352.91 0.71 C 314.65 0.69 276.39 0.62 238.13 0.75 L 237.69 0.00 Z" />
</g>
<g id="#23233aff">
<path fill="#23233a" opacity="1.00" d=" M 160.08 71.27 C 171.69 71.76 183.25 70.52 194.84 70.26 C 210.59 70.63 226.51 69.05 242.10 72.06 C 252.01 73.43 261.56 76.60 270.81 80.32 C 277.50 84.33 284.06 88.93 288.74 95.27 C 296.71 106.02 300.80 119.62 299.97 132.99 C 300.27 149.32 296.68 166.37 286.44 179.47 C 282.54 184.47 277.96 188.92 273.09 192.96 C 267.95 196.26 262.76 199.50 257.21 202.06 C 255.41 203.01 253.15 203.83 252.62 206.04 C 252.73 206.47 252.97 207.31 253.09 207.74 C 256.82 209.70 260.90 211.14 264.20 213.86 C 267.15 216.25 270.06 218.70 272.85 221.29 C 283.03 233.42 289.22 248.19 295.33 262.64 C 301.24 277.28 306.69 292.10 312.07 306.95 C 315.42 316.29 318.16 325.84 321.74 335.10 L 321.79 335.94 C 318.50 335.91 315.22 335.87 311.93 335.81 C 300.97 335.74 290.01 335.72 279.05 335.83 C 275.55 335.90 272.04 335.81 268.55 335.57 C 265.95 326.61 263.45 317.62 260.46 308.78 C 254.30 289.24 248.19 269.52 238.93 251.19 C 235.13 243.17 228.40 236.70 220.17 233.37 C 214.44 230.94 208.24 229.65 202.01 229.72 C 194.63 229.81 187.25 229.58 179.87 229.90 C 179.42 243.59 179.96 257.30 179.73 271.00 C 179.47 280.42 180.96 289.78 180.72 299.20 C 180.68 302.49 180.66 305.79 180.75 309.09 C 180.79 310.63 180.84 312.18 180.91 313.73 C 180.68 321.05 180.91 328.38 180.71 335.70 C 174.16 335.94 167.61 335.69 161.06 335.80 C 151.14 335.66 141.22 335.93 131.30 335.69 C 132.64 326.88 132.28 317.97 132.12 309.09 C 132.10 302.04 133.49 295.06 133.28 288.00 C 133.06 268.39 133.43 248.78 133.23 229.18 C 133.39 221.48 133.39 213.79 133.30 206.09 C 133.43 196.96 133.45 187.84 133.20 178.71 C 133.57 156.81 132.98 134.90 133.32 113.00 C 133.43 109.59 132.93 106.21 132.44 102.84 C 131.99 98.24 132.30 93.62 132.29 89.01 C 132.37 83.10 131.39 77.25 131.19 71.35 C 140.82 71.17 150.45 71.43 160.08 71.27 M 182.74 110.02 C 181.48 109.90 180.22 109.77 178.97 109.63 C 176.08 115.31 178.47 121.93 178.54 127.99 C 179.02 148.99 178.64 170.01 178.78 191.02 C 178.39 192.97 180.09 194.52 182.00 194.20 C 190.66 194.23 199.35 194.37 208.00 194.12 C 214.65 193.13 221.48 192.19 227.61 189.30 C 233.85 188.09 239.16 183.98 243.58 179.58 C 251.66 171.73 254.58 159.96 254.32 149.00 C 254.57 141.26 253.07 133.41 249.59 126.47 C 246.10 119.44 239.39 114.53 232.29 111.58 C 225.73 109.49 218.97 107.35 212.00 107.71 C 202.24 108.06 192.14 106.69 182.74 110.02 Z" />
</g>
<g id="#ffffffff">
<path fill="#ffffff" opacity="1.00" d=" M 271.45 71.34 C 273.62 71.26 275.80 71.18 277.99 71.16 C 289.58 71.22 301.18 71.30 312.78 71.10 C 315.74 71.08 318.71 71.20 321.67 71.36 C 322.38 82.28 319.85 93.11 320.82 104.05 C 320.82 110.58 320.88 117.13 320.52 123.66 C 319.99 127.08 319.54 130.53 319.66 134.00 C 319.97 148.44 319.45 162.88 319.89 177.30 C 322.34 177.19 325.02 177.63 327.22 176.27 C 330.34 174.36 332.65 171.43 334.98 168.65 C 345.61 155.79 354.84 141.85 363.97 127.91 C 368.81 120.10 374.00 112.51 378.52 104.51 C 383.25 97.69 387.14 90.37 391.20 83.15 C 393.44 79.20 394.95 74.91 396.44 70.64 C 400.70 74.05 402.36 79.43 405.13 83.94 C 409.84 91.88 414.43 99.90 419.16 107.83 C 420.44 109.97 421.31 112.32 421.98 114.71 C 415.54 122.11 409.85 130.12 403.82 137.85 C 395.41 148.37 387.04 158.95 377.62 168.60 C 374.46 172.55 370.07 175.31 366.99 179.30 C 365.36 182.13 368.39 184.25 370.27 185.85 C 378.01 191.78 383.50 199.95 389.60 207.42 C 401.11 223.52 411.42 240.44 421.32 257.57 C 425.02 263.65 427.92 270.25 432.51 275.75 C 431.68 278.07 430.89 280.43 429.64 282.56 C 423.92 292.29 418.43 302.15 412.85 311.96 C 410.10 316.83 406.86 321.42 404.44 326.47 C 402.96 329.41 403.18 332.77 402.97 335.96 C 402.24 334.47 401.50 333.00 400.86 331.49 C 399.98 323.66 395.57 316.89 392.18 309.96 C 384.93 294.27 376.33 279.25 367.94 264.16 C 360.05 250.95 352.50 237.36 342.51 225.58 C 337.38 218.98 330.27 211.28 321.02 212.87 L 320.01 213.04 C 319.31 225.01 319.99 237.02 319.72 249.00 C 319.26 258.70 321.23 268.30 320.74 278.00 C 320.22 288.72 322.05 299.36 321.73 310.08 C 321.53 318.42 322.05 326.76 321.74 335.10 C 318.16 325.84 315.42 316.29 312.07 306.95 C 306.69 292.10 301.24 277.28 295.33 262.64 C 289.22 248.19 283.03 233.42 272.85 221.29 C 273.42 216.20 273.36 211.07 273.28 205.95 C 273.29 201.62 273.33 197.29 273.09 192.96 C 277.96 188.92 282.54 184.47 286.44 179.47 C 296.68 166.37 300.27 149.32 299.97 132.99 C 300.80 119.62 296.71 106.02 288.74 95.27 C 284.06 88.93 277.50 84.33 270.81 80.32 C 271.00 77.33 271.21 74.33 271.45 71.34 Z" />
</g>
</svg>
